<svg xmlns="http://www.w3.org/2000/svg" viewBox="0 0 512 512" width="100%" height="100%">
    <defs>
        <!-- Background Gradient for the Squircle -->
        <linearGradient id="bgGrad" x1="0%" y1="0%" x2="0%" y2="100%">
            <stop offset="0%" stop-color="#E63E3E" />
            <stop offset="100%" stop-color="#C92A2A" />
        </linearGradient>
        <!-- Soft Glow Filter for app-like depth -->
        <filter id="appGlow" x="-20%" y="-20%" width="140%" height="140%">
            <feGaussianBlur stdDeviation="12" result="blur" />
            <feComposite in="SourceGraphic" in2="blur" operator="over" />
        </filter>
    </defs>
    
    <!-- Main Squircle Container -->
    <rect x="32" y="32" width="448" height="448" rx="110" ry="110" fill="url(#bgGrad)" />
    
    <!-- White Material Design Fire Icon scaled and centered -->
    <g transform="translate(112, 112) scale(12)">
        <path d="M19.48,12.35c-1.57-4.08-7.16-4.3-5.81-10.23c0.1-0.44-0.37-0.78-0.75-0.55C9.29,3.71,6.68,8,8.87,13.62 c0.18,0.46-0.36,0.89-0.75,0.59c-1.81-1.37-2-3.34-1.84-4.75c0.06-0.52-0.62-0.77-0.91-0.34C4.69,10.16,4,11.84,4,14.37 c0.38,5.6,5.11,7.32,6.81,7.54c2.43,0.31,5.06-0.14,6.95-1.87C19.84,18.11,20.6,15.03,19.48,12.35z M10.2,17.38 c1.44-0.35,2.18-1.39,2.38-2.31c0.33-1.43-0.96-2.83-0.09-5.09c0.33,1.87,3.27,3.04,3.27,5.08C15.84,17.59,13.1,19.76,10.2,17.38z" fill="#FFFFFF" />
    </g>
</svg>